name rise30.6535peak61.5555fall82.9339.mot
datacolumns 19
datarows 20
range 18.16159100000000 18.19325600000000
endheader
time	ground_force1_vx	ground_force1_vy	ground_force1_vz	ground_force1_px	ground_force1_py	ground_force1_pz	ground_force2_vx	ground_force2_vy	ground_force2_vz	ground_force2_px	ground_force2_py	ground_force2_pz	ground_torque1_x	ground_torque1_y	ground_torque1_z	ground_torque2_x	ground_torque2_y	ground_torque2_z	
18.16159100000000	-6.27978500000000	40.25446300000000	-9.55653800000000	0.30821300000000	0.00000000000000	0.11345900000000	-45.57127800000000	794.38070200000004	-57.31121000000000	0.15696200000000	0.00000000000000	-0.07856600000000	0.00000000000000	-6.31111100000000	0.00000000000000	0.00000000000000	-24.04725200000000	0.00000000000000	
18.16326200000000	-6.84121900000000	47.14888400000000	-10.74793400000000	0.31614300000000	0.00000000000000	0.11396600000000	-46.06368100000000	792.20080599999994	-56.97645700000000	0.15608300000000	0.00000000000000	-0.07847500000000	0.00000000000000	-7.22185100000000	0.00000000000000	0.00000000000000	-23.91474800000000	0.00000000000000	
18.16493100000000	-7.26847800000000	54.12184500000000	-11.83110200000000	0.32342600000000	0.00000000000000	0.11443500000000	-46.58073600000000	789.92079000000001	-56.62627400000000	0.15520700000000	0.00000000000000	-0.07838000000000	0.00000000000000	-8.08317900000000	0.00000000000000	0.00000000000000	-23.78391100000000	0.00000000000000	
18.16659600000000	-7.54311800000000	61.08297700000000	-12.78074500000000	0.33015900000000	0.00000000000000	0.11487200000000	-47.12244700000000	787.53797899999995	-56.26060600000000	0.15433500000000	0.00000000000000	-0.07828200000000	0.00000000000000	-8.87547400000000	0.00000000000000	0.00000000000000	-23.65483000000000	0.00000000000000	
18.16826300000000	-7.65391600000000	67.96421700000000	-13.58006100000000	0.33642000000000	0.00000000000000	0.11528200000000	-47.68870000000000	785.04957000000002	-55.87939800000000	0.15346800000000	0.00000000000000	-0.07818100000000	0.00000000000000	-9.58452300000000	0.00000000000000	0.00000000000000	-23.52757500000000	0.00000000000000	
18.16992300000000	-7.59677100000000	74.72188800000001	-14.22085500000000	0.34227200000000	0.00000000000000	0.11566800000000	-48.27926800000000	782.45263499999999	-55.48258700000000	0.15260800000000	0.00000000000000	-0.07807600000000	0.00000000000000	-10.20184800000000	0.00000000000000	0.00000000000000	-23.40219300000000	0.00000000000000	
18.17159700000000	-7.37403200000000	81.33642399999999	-14.70292900000000	0.34776600000000	0.00000000000000	0.11603400000000	-48.89380100000000	779.74413400000003	-55.07010800000000	0.15175600000000	0.00000000000000	-0.07796900000000	0.00000000000000	-10.72451100000000	0.00000000000000	0.00000000000000	-23.27870900000000	0.00000000000000	
18.17326400000000	-6.99342800000000	87.81016200000001	-15.03292200000000	0.35294300000000	0.00000000000000	0.11638100000000	-49.53182800000000	776.92092100000002	-54.64189600000000	0.15091300000000	0.00000000000000	-0.07785800000000	0.00000000000000	-11.15449700000000	0.00000000000000	0.00000000000000	-23.15712500000000	0.00000000000000	
18.17492600000000	-6.46674300000000	94.16370499999999	-15.22278200000000	0.35783900000000	0.00000000000000	0.11671200000000	-50.19275500000000	773.97975299999996	-54.19788200000000	0.15007900000000	0.00000000000000	-0.07774300000000	0.00000000000000	-11.49779000000000	0.00000000000000	0.00000000000000	-23.03742100000000	0.00000000000000	
18.17659900000000	-5.80839600000000	100.43142400000001	-15.28808000000000	0.36248200000000	0.00000000000000	0.11702800000000	-50.87586000000000	770.91730500000006	-53.73800100000000	0.14925700000000	0.00000000000000	-0.07762500000000	0.00000000000000	-11.76328100000000	0.00000000000000	0.00000000000000	-22.91955200000000	0.00000000000000	
18.17826100000000	-5.03405100000000	106.65660500000000	-15.24631300000000	0.36689600000000	0.00000000000000	0.11733200000000	-51.58029400000000	767.73017900000002	-53.26218600000000	0.14844600000000	0.00000000000000	-0.07750400000000	0.00000000000000	-11.96162000000000	0.00000000000000	0.00000000000000	-22.80345300000000	0.00000000000000	
18.17992900000000	-4.15937700000000	112.88671300000000	-15.11534200000000	0.37110300000000	0.00000000000000	0.11762400000000	-52.30508000000000	764.41491599999995	-52.77037900000000	0.14764800000000	0.00000000000000	-0.07737900000000	0.00000000000000	-12.10411900000000	0.00000000000000	0.00000000000000	-22.68903400000000	0.00000000000000	
18.18159400000000	-3.19902400000000	119.16911500000001	-14.91207900000000	0.37511900000000	0.00000000000000	0.11790600000000	-53.04911400000000	760.96801000000005	-52.26252300000000	0.14686400000000	0.00000000000000	-0.07725000000000	0.00000000000000	-12.20179200000000	0.00000000000000	0.00000000000000	-22.57618200000000	0.00000000000000	
18.18327200000000	-2.16585800000000	125.54752999999999	-14.65146300000000	0.37895800000000	0.00000000000000	0.11817900000000	-53.81116200000000	757.38592600000004	-51.73857300000000	0.14609400000000	0.00000000000000	-0.07711800000000	0.00000000000000	-12.26457500000000	0.00000000000000	0.00000000000000	-22.46476300000000	0.00000000000000	
18.18492600000000	-1.07047000000000	132.05935299999999	-14.34577000000000	0.38263400000000	0.00000000000000	0.11844200000000	-54.58986200000000	753.66510700000003	-51.19849200000000	0.14533900000000	0.00000000000000	-0.07698200000000	0.00000000000000	-12.30076500000000	0.00000000000000	0.00000000000000	-22.35462000000000	0.00000000000000	
18.18659400000000	0.07905200000000	138.73388800000001	-14.00424300000000	0.38615700000000	0.00000000000000	0.11869800000000	-55.38372700000000	749.80199600000003	-50.64225300000000	0.14459900000000	0.00000000000000	-0.07684200000000	0.00000000000000	-12.31668300000000	0.00000000000000	0.00000000000000	-22.24557500000000	0.00000000000000	
18.18826000000000	1.27711200000000	145.59148800000000	-13.63301700000000	0.38953500000000	0.00000000000000	0.11894700000000	-56.19114200000000	745.79304999999999	-50.06984800000000	0.14387600000000	0.00000000000000	-0.07669800000000	0.00000000000000	-12.31654500000000	0.00000000000000	0.00000000000000	-22.13743000000000	0.00000000000000	
18.18992500000000	2.52041400000000	152.64346800000001	-13.23529200000000	0.39277800000000	0.00000000000000	0.11919000000000	-57.01037300000000	741.63475900000003	-49.48128100000000	0.14317000000000	0.00000000000000	-0.07655000000000	0.00000000000000	-12.30252100000000	0.00000000000000	0.00000000000000	-22.02996500000000	0.00000000000000	
18.19159200000000	3.80761700000000	159.89269200000001	-12.81169000000000	0.39589100000000	0.00000000000000	0.11942600000000	-57.83956300000000	737.32366100000002	-48.87657800000000	0.14248200000000	0.00000000000000	-0.07639900000000	0.00000000000000	-12.27493400000000	0.00000000000000	0.00000000000000	-21.92294200000000	0.00000000000000	
18.19325600000000	5.13891300000000	167.33462900000001	-12.36074300000000	0.39888100000000	0.00000000000000	0.11965600000000	-58.67674200000000	732.85636499999998	-48.25578200000000	0.14181100000000	0.00000000000000	-0.07624400000000	0.00000000000000	-12.23257000000000	0.00000000000000	0.00000000000000	-21.81610500000000	0.00000000000000	
